PathFileType	4	(X/Y/Z)	C:\Users\Basilio\Documents\Thesis Gigler\squatting_fais\c3dfiles\040\SLS_pre_front5\markers_experimental.trc
DataRate	CameraRate	NumFrames	NumMarkers	Units	OrigDataRate	OrigDataStartFrame	OrigNumFrames
200.000000	200.000000	4	62	mm	200.000000	0	1309
Frame#	Time	FHD			LBHD			RBHD			C7			T10			CLAV			LSHO			LUUPA			LMUPA			LDUPA			LLEP			LMEP			LRAD			LUL			LRFIN			RSHO			RUPA1			RMUPA			RDUPA			RLEP			RMEP			RRAD			RUL			RUFIN			LASI			RASI			USACR			LSACR			RSACR			LTHI1			LTHI2			LTHI3			LTHI4			LLFC			LMFC			LTIB1			LTIB2			LTIB3			LTIB4			LLMAL			LMMAL			LHEE			LMT1			LMT2			LMT5			RTHI			RTHI2			RTHI3			RTHI4			RLFC			RMFC			RTIB1			RTIB2			RTIB3			RTIB4			RLMAL			RMMAL			RHEE			RMT1			RMT2			RMT5			*61			
		X1	Y1	Z1	X2	Y2	Z2	X3	Y3	Z3	X4	Y4	Z4	X5	Y5	Z5	X6	Y6	Z6	X7	Y7	Z7	X8	Y8	Z8	X9	Y9	Z9	X10	Y10	Z10	X11	Y11	Z11	X12	Y12	Z12	X13	Y13	Z13	X14	Y14	Z14	X15	Y15	Z15	X16	Y16	Z16	X17	Y17	Z17	X18	Y18	Z18	X19	Y19	Z19	X20	Y20	Z20	X21	Y21	Z21	X22	Y22	Z22	X23	Y23	Z23	X24	Y24	Z24	X25	Y25	Z25	X26	Y26	Z26	X27	Y27	Z27	X28	Y28	Z28	X29	Y29	Z29	X30	Y30	Z30	X31	Y31	Z31	X32	Y32	Z32	X33	Y33	Z33	X34	Y34	Z34	X35	Y35	Z35	X36	Y36	Z36	X37	Y37	Z37	X38	Y38	Z38	X39	Y39	Z39	X40	Y40	Z40	X41	Y41	Z41	X42	Y42	Z42	X43	Y43	Z43	X44	Y44	Z44	X45	Y45	Z45	X46	Y46	Z46	X47	Y47	Z47	X48	Y48	Z48	X49	Y49	Z49	X50	Y50	Z50	X51	Y51	Z51	X52	Y52	Z52	X53	Y53	Z53	X54	Y54	Z54	X55	Y55	Z55	X56	Y56	Z56	X57	Y57	Z57	X58	Y58	Z58	X59	Y59	Z59	X60	Y60	Z60	X61	Y61	Z61	X62	Y62	Z62	

1	0	-68.37650299072267	1727.408325195313	-1084.247436523438	-202.8472595214844	1733.151733398438	-1121.918090820313	-262.7208862304688	1719.453369140625	-988.430847167969	-319.0874938964844	1583.512451171875	-1033.020629882813	-370.0510253906251	1260.423461914063	-1025.681396484375	-199.9842834472657	1498.578247070313	-1041.7568359375	-275.6047058105469	1544.871337890625	-1211.19775390625	-339.5959167480469	1339.248046875	-1288.610473632813	-300.3124694824219	1310.689697265625	-1281.801879882813	-345.8082580566407	1270.9130859375	-1294.6142578125	-361.8512573242188	1208.612426757813	-1289.599243164063	-373.8992614746094	1200.6640625	-1224.082275390625	-216.1157379150391	960.7264404296877	-1271.909423828125	-266.6074523925782	953.238464355469	-1329.134399414063	-182.9419097900391	879.4876098632815	-1301.462280273438	-243.4313049316407	1519.762573242188	-863.8579711914065	-301.4533081054688	1313.973022460938	-777.9439697265627	-263.7627563476563	1287.1630859375	-789.283386230469	-303.5451049804688	1244.587280273438	-775.618835449219	-300.2032470703126	1181.142333984375	-773.761413574219	-327.8978881835938	1170.998779296875	-846.0344848632815	-144.3059387207032	937.4734497070315	-815.721862792969	-199.9215545654297	922.1367797851565	-766.8834228515626	-112.3674468994141	852.5325317382815	-790.163024902344	-199.4571990966797	1078.839111328125	-1145.149780273438	-186.7876739501953	1080.894409179688	-913.8779907226565	-378.0706787109376	1126.345581054688	-1018.753967285156	-385.6127319335939	1095.168823242188	-1046.130493164063	-381.8341369628907	1094.501342773438	-989.7816162109377	-328.3169860839844	824.5501098632815	-1192.949829101563	-291.3995361328126	747.6600952148439	-1196.621826171875	-244.1475372314454	750.5889892578126	-1201.37939453125	-313.8136291503907	695.1288452148439	-1181.743408203125	-301.3830871582032	561.5250854492189	-1167.373901367188	-293.8184814453126	547.9249267578126	-1035.7822265625	-272.0546569824219	338.4507141113282	-1123.2998046875	-346.0951843261719	300.9242553710938	-1154.356079101563	-302.8426513671876	292.4555053710938	-1144.399047851563	-292.9921569824219	216.1031951904297	-1107.113525390625	-358.2656860351563	127.1685104370117	-1106.990844726563	-318.3695678710938	144.6922302246094	-1031.947021484375	-413.9039306640626	97.30656433105472	-1050.1396484375	-199.9065093994141	61.43735122680665	-1051.8076171875	-206.6051177978516	50.39915466308595	-1096.881469726563	-260.8677978515626	36.43206405639649	-1138.59033203125	-263.4553527832032	814.257995605469	-844.945251464844	-234.2805633544922	754.5565795898439	-849.3103637695315	-202.1564941406251	754.0859375000001	-854.8624267578127	-271.1832275390626	680.9105224609376	-863.4959106445315	-278.8224487304688	544.8073730468751	-877.053649902344	-272.6914672851563	539.9106445312501	-1010.320190429688	-238.4884185791016	357.0536193847657	-904.6751098632815	-313.0734252929688	283.5233154296876	-885.5049438476565	-267.9308776855469	276.7525939941407	-892.8623657226565	-253.2071685791016	231.0956115722657	-927.9470825195315	-312.5415954589844	122.9425430297852	-914.1954345703127	-289.0824584960938	136.0735931396485	-998.0799560546877	-372.0032653808594	87.1597366333008	-973.390319824219	-153.0679321289063	55.04858779907228	-971.8958740234377	-159.7646179199219	56.21640396118165	-931.0728759765627	-205.8250427246094	36.82225036621094	-881.6475219726565	nan	nan	nan	
2	0.005	-67.5891799926758	1727.057739257813	-1084.353881835938	-203.5860443115235	1733.22900390625	-1122.044921875	-263.2931518554688	1719.382446289063	-988.6138916015627	-319.3377380371094	1583.435180664063	-1033.188354492188	-370.7975463867188	1259.91552734375	-1026.075805664063	-200.2285461425782	1498.64501953125	-1041.92236328125	-275.8864440917969	1544.7900390625	-1211.282592773438	-339.8739929199219	1339.166259765625	-1288.71826171875	-300.6405029296876	1310.602905273438	-1281.849853515625	-346.0453796386719	1270.804443359375	-1294.706298828125	-362.0693664550782	1208.525756835938	-1289.75341796875	-374.2540588378907	1200.606201171875	-1224.259399414063	-216.6787414550782	960.554626464844	-1271.727416992188	-266.8371276855469	953.1838378906252	-1329.197998046875	-183.5015869140625	879.3462524414065	-1300.972045898438	-243.6562957763672	1519.759521484375	-863.992126464844	-301.4114685058594	1313.932983398438	-778.0419921875002	-263.4608764648438	1286.88671875	-789.4195556640627	-303.4287719726563	1244.535278320313	-775.608581542969	-300.0744323730469	1181.0859375	-773.7944946289065	-327.7719116210938	1170.929809570313	-846.050231933594	-143.583740234375	937.7591552734377	-816.3609619140627	-199.3312225341797	922.2420043945315	-767.2513427734376	-111.9163894653321	852.7674560546877	-790.4805908203127	-199.5098724365235	1078.708251953125	-1145.012084960938	-187.2100067138672	1080.816650390625	-913.7500610351565	-378.3133850097657	1126.320922851563	-1018.904357910156	-385.5354919433595	1095.529418945313	-1046.167602539063	-382.1640014648438	1094.501220703125	-989.8972778320315	-328.2486572265626	824.5042114257815	-1192.927978515625	-291.2938232421876	747.5211181640626	-1196.525268554688	-244.0501861572266	750.4990844726564	-1201.191772460938	-313.8135070800782	695.0770874023439	-1181.7041015625	-301.3734436035157	561.4553833007814	-1167.281860351563	-294.1132202148438	547.9201049804689	-1035.643798828125	-271.9431152343751	338.3933715820313	-1123.03369140625	-345.9112548828126	300.7583923339844	-1154.227661132813	-302.6074523925782	292.3568725585938	-1144.092041015625	-292.9862976074219	215.9894714355469	-1106.784912109375	-358.2474670410157	127.1990432739258	-1106.827270507813	-318.4272766113282	144.6472930908203	-1031.709228515625	-413.4614562988282	96.74348449707034	-1050.283447265625	-199.8751831054688	61.41652679443361	-1051.749877929688	-205.5542297363282	51.56359100341798	-1097.478149414063	-260.8170776367188	36.48140716552735	-1138.474975585938	-263.8371582031251	814.1904296875002	-844.9077758789065	-235.017318725586	754.4476928710939	-849.172058105469	-202.6132049560547	753.5278320312501	-856.4982910156252	-271.6148986816407	680.8849487304689	-863.4785156250002	-279.3448791503907	544.8278198242189	-876.9617919921877	-273.1345214843751	539.9151000976564	-1010.297241210938	-239.0981445312501	357.0126342773438	-904.4439697265627	-313.4750671386719	283.5209960937501	-885.4971923828127	-268.3458862304688	276.7877197265626	-892.8850708007815	-253.4859771728516	231.0941619873047	-927.856872558594	-312.6081542968751	122.8956909179688	-914.1447753906252	-289.0880737304688	136.0447540283203	-998.0871582031252	-372.0261840820313	87.17706298828126	-973.424255371094	-153.0777893066407	55.07287979125978	-971.8950805664065	-159.7754058837891	56.23052978515626	-931.0679931640627	-206.5088958740235	36.45689773559571	-882.129333496094	nan	nan	nan	
3	0.01	-69.62008666992189	1728.013916015625	-1084.624633789063	-204.2861785888672	1733.291748046875	-1122.161499023438	-263.9721374511719	1719.2119140625	-988.623474121094	-319.5893859863282	1583.322265625	-1033.332763671875	-371.0822753906251	1259.877319335938	-1026.26123046875	-200.4954833984376	1498.672973632813	-1041.996459960938	-276.1909790039063	1544.76904296875	-1211.37646484375	-340.1440734863282	1339.11865234375	-1288.817504882813	-300.8184204101563	1310.521118164063	-1281.972290039063	-346.2953186035157	1270.757446289063	-1294.827514648438	-362.3010559082032	1208.423828125	-1289.9052734375	-374.5281066894532	1200.483520507813	-1224.332641601563	-217.096908569336	960.3386230468752	-1271.575073242188	-267.9841613769532	953.3165283203127	-1329.715942382813	-183.8191833496094	879.185729980469	-1300.721313476563	-243.9385986328126	1519.797607421875	-864.074157714844	-301.3402404785157	1313.874755859375	-778.1011352539065	-263.5834350585938	1287.134033203125	-789.5712890625002	-303.3336181640626	1244.528930664063	-775.664001464844	-299.9450988769532	1181.077758789063	-773.8772583007815	-327.6807556152344	1170.776000976563	-846.084167480469	-143.2843017578125	937.902282714844	-816.6901855468752	-198.6108398437501	922.3198852539065	-767.4965209960939	-111.1776657104492	853.0543212890627	-790.9510498046877	-199.5409240722657	1078.608276367188	-1144.990234375	-187.7230682373047	1080.782836914063	-913.603454589844	-378.5148925781251	1126.307373046875	-1019.05859375	-386.2067260742189	1095.102905273438	-1046.482299804688	-382.2925720214844	1094.46728515625	-990.0314941406252	-328.1661987304688	824.378845214844	-1192.98779296875	-291.1708984375001	747.4384155273439	-1196.435668945313	-243.9522399902344	750.4201660156251	-1201.040161132813	-313.7518615722657	694.9524536132814	-1181.63818359375	-301.2705993652344	561.3840332031251	-1167.187622070313	-294.4145812988282	547.9278564453126	-1035.506713867188	-271.8638916015626	338.5994567871094	-1122.752319335938	-345.7863159179688	300.6165466308594	-1154.103759765625	-302.4467468261719	292.3105773925782	-1143.87548828125	-292.8426818847657	215.9815063476563	-1106.444580078125	-358.1150817871094	127.2197418212891	-1106.692749023438	-318.4154968261719	144.6321105957032	-1031.482788085938	-413.8883056640626	97.30667877197268	-1050.030517578125	-199.9227905273438	61.33126068115236	-1051.558471679688	-205.5548706054688	51.54647445678712	-1097.400756835938	-260.8387145996094	36.53952407836915	-1138.455444335938	-264.2112121582032	813.9651489257815	-844.1616821289065	-235.2776184082032	754.4597778320314	-849.1602783203127	-202.8118133544922	754.0745849609376	-854.8882446289065	-272.1168518066407	680.9794921875001	-863.4358520507815	-280.0043945312501	544.8504638671876	-876.8961181640627	-273.5637207031251	539.8342285156251	-1010.264587402344	-239.3318939208985	357.1482849121094	-904.4316406250002	-313.4825439453126	283.3777770996094	-885.4934082031252	-269.5704650878907	276.0406188964844	-893.8707275390627	-253.1277465820313	230.7655944824219	-927.8295898437502	-312.6100463867188	122.8753433227539	-914.1251220703127	-289.1164550781251	136.0410461425782	-998.061218261719	-372.0093994140626	87.14468383789064	-973.393737792969	-153.1186065673828	55.06389236450197	-971.8923339843752	-159.7693481445313	56.23489379882814	-931.0468750000002	-206.4902343750001	36.44690704345704	-882.1158447265627	nan	nan	nan	
4	0.015	-68.81871795654298	1727.643920898438	-1084.883666992188	-205.0521392822266	1733.374633789063	-1122.23974609375	-264.5436096191407	1719.17236328125	-988.7271728515627	-319.9469909667969	1583.283081054688	-1033.32861328125	-370.5186767578126	1260.186645507813	-1026.134887695313	-200.6915740966797	1498.751098632813	-1042.126708984375	-276.4738159179688	1544.685913085938	-1211.515625	-340.3893432617188	1339.051879882813	-1288.955078125	-301.0588378906251	1310.456176757813	-1282.07080078125	-346.5521240234376	1270.656127929688	-1294.937133789063	-362.5765686035157	1208.364868164063	-1290.043701171875	-374.7868957519532	1200.430419921875	-1224.470092773438	-217.459213256836	960.2012329101565	-1271.468994140625	-268.2088012695313	953.2261352539065	-1329.806396484375	-184.0550842285157	879.0649414062502	-1300.479858398438	-244.2872467041016	1519.802124023438	-864.1660766601565	-301.3302917480469	1313.841064453125	-778.148132324219	-263.3490295410157	1286.92529296875	-789.6517333984377	-303.1296997070313	1244.431884765625	-775.7751464843752	-299.5747680664063	1181.020751953125	-773.9172973632815	-327.5794677734376	1170.73828125	-846.0883789062502	-142.7556304931641	938.0881347656252	-817.094177246094	-197.9448852539063	922.371520996094	-767.7386474609376	-110.0356674194336	852.8803710937502	-791.9148559570315	-199.5077209472657	1078.548095703125	-1144.935791015625	-187.9059600830078	1080.809448242188	-913.5043945312502	-378.8007507324219	1126.26220703125	-1019.223388671875	-386.5366821289064	1095.114624023438	-1046.682983398438	-382.4609680175782	1094.429809570313	-990.083190917969	-328.0601196289063	824.2506103515627	-1192.987670898438	-291.0621337890626	747.3365478515626	-1196.397216796875	-243.9119110107422	750.3489990234376	-1200.890869140625	-313.7628784179688	694.9046020507814	-1181.571166992188	-301.2119445800782	561.3011474609376	-1167.068359375	-294.6560058593751	547.8696899414064	-1035.367431640625	-271.7900695800782	338.6246032714844	-1122.503784179688	-345.7513732910157	300.4070739746094	-1153.954956054688	-302.3182067871094	292.2311706542969	-1143.617553710938	-292.6810302734376	215.9558258056641	-1106.156616210938	-358.0598144531251	127.2686233520508	-1106.581787109375	-318.4343872070313	144.5761108398438	-1031.255126953125	-413.856414794922	97.30240631103518	-1049.977416992188	-198.8250732421876	60.62522506713869	-1051.512939453125	-205.1958923339844	51.94948196411134	-1097.4541015625	-260.7603149414063	36.55025100708009	-1138.420043945313	-264.6126403808594	814.0483398437502	-844.1805419921877	-235.5362548828126	754.4782104492189	-849.1783447265627	-203.2845153808594	754.0543212890626	-854.8200683593752	-272.4241638183594	680.9883422851564	-863.3948364257815	-280.7376403808594	544.9257812500001	-876.8421020507815	-274.1403503417969	539.8841552734376	-1010.228210449219	-239.5894012451172	357.2341918945313	-904.439147949219	-313.6886291503907	283.2859497070313	-885.538269042969	-268.5355529785157	276.7962036132813	-892.7520141601565	-253.2741851806641	230.8143463134766	-927.7683105468752	-313.2160034179688	122.6009521484375	-914.4967041015627	-289.1226196289063	136.03271484375	-998.0444946289065	-371.9688415527344	87.11439514160158	-973.4055786132815	-153.0671691894532	55.11284637451173	-971.866882324219	-159.7767791748047	56.24890518188478	-931.0396728515627	-206.5234832763672	36.45831680297852	-882.1032714843752	nan	nan	nan	
